<?xml version="1.0" encoding="UTF-8" standalone="no"?>
<!DOCTYPE svg PUBLIC "-//W3C//DTD SVG 1.1//EN" "http://www.w3.org/Graphics/SVG/1.1/DTD/svg11.dtd">
<svg width="100%" height="100%" viewBox="0 0 457 457" version="1.1" xmlns="http://www.w3.org/2000/svg" xmlns:xlink="http://www.w3.org/1999/xlink" xml:space="preserve" xmlns:serif="http://www.serif.com/" style="fill-rule:evenodd;clip-rule:evenodd;stroke-linejoin:round;stroke-miterlimit:2;">
    <g transform="matrix(1,0,0,1,-21.9244,-21.9244)">
        <g id="_3Delight-Display" serif:id="3Delight Display">
        </g>
        <g id="_3Delight" serif:id="3Delight" transform="matrix(1,0,0,1,-6,-6)">
            <g id="_64-" serif:id="64+">
                <g transform="matrix(0.863056,0,0,0.863056,35.0576,35.0576)">
                    <circle cx="256" cy="256" r="256" style="fill:url(#_Linear1);"/>
                </g>
                <g transform="matrix(0.958489,0,0,0.958489,10.6269,10.6269)">
                    <path d="M256,18.047C387.33,18.047 493.953,124.67 493.953,256C493.953,387.33 387.33,493.953 256,493.953C124.67,493.953 18.047,387.33 18.047,256C18.047,124.67 124.67,18.047 256,18.047ZM256,36.605C377.088,36.605 475.395,134.912 475.395,256C475.395,377.088 377.088,475.395 256,475.395C134.912,475.395 36.605,377.088 36.605,256C36.605,134.912 134.912,36.605 256,36.605Z" style="fill:url(#_Linear2);"/>
                </g>
                <g id="_3dl-alone" serif:id="3dl alone" transform="matrix(8.19215,0,0,8.19215,-1282.44,-1502.95)">
                    <text x="173.894px" y="230.076px" style="font-family:'HelveticaNeue-Thin', 'Helvetica Neue', sans-serif;font-weight:200;font-size:50px;fill:rgb(222,222,222);">3</text>
                </g>
            </g>
        </g>
    </g>
    <defs>
        <linearGradient id="_Linear1" x1="0" y1="0" x2="1" y2="0" gradientUnits="userSpaceOnUse" gradientTransform="matrix(-2.6211,556.009,-556.009,-2.6211,256,-15.273)"><stop offset="0" style="stop-color:rgb(233,80,86);stop-opacity:1"/><stop offset="1" style="stop-color:rgb(177,22,28);stop-opacity:1"/></linearGradient>
        <linearGradient id="_Linear2" x1="0" y1="0" x2="1" y2="0" gradientUnits="userSpaceOnUse" gradientTransform="matrix(2.68682e-14,-438.791,438.791,2.68682e-14,256,475.395)"><stop offset="0" style="stop-color:rgb(225,225,225);stop-opacity:1"/><stop offset="1" style="stop-color:rgb(239,239,239);stop-opacity:1"/></linearGradient>
    </defs>
</svg>
